<svg xmlns="http://www.w3.org/2000/svg" viewBox="0 0 256 256" width="256" height="256">
	<path fill="#006282" d="M 246.3 79.5 c -26.5 -65 -101 -96.4 -166.3 -69.9 c -15.9 6.4 -30.4 16.1 -42.4 28.3 c -36.6 36.3 -47.6 91.1 -27.8 138.8 c 26.5 65 101 96.4 166.3 69.9 c 15.9 -6.4 30.4 -16.1 42.4 -28.3 c 36.6 -36.5 47.6 -91.3 27.8 -138.8 z m -44.1 115.6 l -113.8 -83.3 l -4.6 4.6 l -4.6 11.5 l 0 23.2 c 2.4 9.3 7 11.5 13.9 11.5 l 20.9 0 c 0 13.9 0 25.4 4.6 34.7 l -53.2 0 l 0 -2.4 l 2.4 -13.9 l 4.6 -25.4 l -2.4 -18.4 c -2 -9.9 -2 -20.1 0 -30.1 c 1.6 -10.8 1.6 -21.7 0 -32.3 l -4.6 -13.9 l 0 -2.4 l 9.3 0 c 22.5 16.4 45.7 32 69.7 46.2 l 4.6 -9.3 l 0 -11.5 l -2.4 -11.5 l 0 -6.9 l 0 -6.9 l 46.5 0 c -4.6 11.5 -4.6 23.2 2.4 39.3 l -34.9 0 l -4.6 4.6 l -4.6 6.9 l 0 6.9 l 2.4 2.4 c 14.5 9.3 28.4 19.4 41.7 30.1 l -2.4 11.5 c 0 7.9 1.6 15.7 4.6 23.2 c 1.3 4 2.7 7.9 4.6 11.7 z"/>
</svg>
