<svg xmlns="http://www.w3.org/2000/svg" viewBox="0 0 256 256" width="256" height="256">
	<circle stroke="#787878" stroke-width="64" fill="#ffffff" cx="128" cy="128" r="96"/>
	<path fill="#5a5a5a" d="M 201.7 97.5 c -16.6 -40.8 -62.9 -60.5 -103.6 -43.9 c -9.9 4.1 -18.9 10.1 -26.5 17.7 c -22.8 22.8 -29.7 57.2 -17.4 87.1 c 16.6 40.8 62.9 60.5 103.6 43.9 c 9.9 -4.1 18.9 -10.1 26.5 -17.7 c 22.8 -22.8 29.7 -57.2 17.4 -87.1 z m -27.5 72.6 l -70.8 -52.2 l -2.9 2.9 l -2.9 7.3 l 0 14.5 c 1.4 5.8 4.3 7.3 8.7 7.3 l 13 0 c 0 8.7 0 16 2.9 21.8 l -33.3 0 l 0 -1.5 l 1.4 -8.7 l 2.9 -16 l -1.4 -11.6 c -1.2 -6.2 -1.2 -12.6 0 -18.9 c 1 -6.7 1 -13.6 0 -20.3 l -2.9 -8.7 l 0 -1.5 l 5.8 0 c 14 10.3 28.5 20 43.4 29 l 2.9 -5.8 l 0 -7.3 l -1.4 -7.3 l 0 -4.4 l 0 -4.4 l 28.9 0 c -2.9 7.3 -2.9 14.5 1.4 24.7 l -21.7 0 l -2.9 2.9 l -2.9 4.4 l 0 4.4 l 1.4 1.5 c 9 5.9 17.7 12.2 26 18.9 l -1.4 7.3 c 0 5 1 9.9 2.9 14.5 c 0.8 2.5 1.8 4.9 2.9 7.3 z"/>
</svg>
